Coordinates
version=1
nRows=22
nColumns=24
inDegrees=yes

Units are S.I. units (second, meters, Newtons, ...)
Angles are in degrees.

endheader
time	pelvis_tilt	pelvis_list	pelvis_rotation	pelvis_tx	pelvis_ty	pelvis_tz	hip_flexion_r	hip_adduction_r	hip_rotation_r	knee_angle_r	ankle_angle_r	subtalar_angle_r	mtp_angle_r	hip_flexion_l	hip_adduction_l	hip_rotation_l	knee_angle_l	ankle_angle_l	subtalar_angle_l	mtp_angle_l	lumbar_extension	lumbar_bending	lumbar_rotation
      0.47900000	     -8.40024523	      2.40141623	      3.77095802	     -0.75138860	      1.01511558	      0.27393148	     31.12767988	     -0.89509456	    -11.93895487	     -1.38694061	      7.04693834	      7.31622199	     14.49880089	     -4.39981166	      6.81592683	      5.11031603	    -12.92505757	      6.53107460	     -2.19932081	      3.54212612	      2.29542928	     -5.06497481	     -5.50402930
      0.48316667	     -8.35712472	      2.35675836	      3.90712055	     -0.74554876	      1.01473457	      0.27391042	     31.04080301	     -0.83782856	    -11.56433961	     -1.79483443	      7.34232598	      7.16181063	     14.58809512	     -4.42252990	      6.75394932	      5.25204879	    -13.64552602	      6.41943859	     -2.26458215	      3.60839250	      2.29877174	     -5.00176337	     -5.49926809
      0.48733333	     -8.32627566	      2.30057627	      4.03061519	     -0.73965343	      1.01433079	      0.27393314	     30.93532099	     -0.75087735	    -11.03535213	     -2.16862694	      7.39454083	      6.64971489	     17.43983633	     -4.41287170	      6.67599837	      5.34567656	    -14.40153803	      6.20398543	     -2.30872420	      6.44251458	      2.31827940	     -4.93846111	     -5.51533798
      0.49150000	     -8.25343441	      2.25169501	      4.17073019	     -0.73374779	      1.01401094	      0.27392124	     30.79820535	     -0.68272858	    -10.56675642	     -2.62242902	      7.53246371	      6.19921395	     17.46376850	     -4.42655226	      6.60699208	      5.46734056	    -15.19875676	      6.02150083	     -2.37007807	      6.50149386	      2.27676248	     -4.88606879	     -5.62884477
      0.49566667	     -8.18221544	      2.18168461	      4.30062564	     -0.72777447	      1.01369059	      0.27392179	     30.65170561	     -0.58453467	    -10.07315815	     -3.08237281	      7.58467735	      5.62316515	     17.50357181	     -4.41751384	      6.51507464	      5.54699318	    -16.03783790	      5.82923104	     -2.39213518	      6.63029825	      2.26036285	     -4.78985793	     -5.68290932
      0.49983333	     -8.07672451	      2.11390082	      4.42573203	     -0.72177308	      1.01342603	      0.27393773	     30.46522556	     -0.48185656	     -9.57717324	     -3.55642995	      7.57080014	      4.98220182	     17.55805563	     -4.42501640	      6.42023939	      5.59473571	    -16.90733989	      5.59857328	     -2.40302546	      6.83133024	      2.20199697	     -4.69456009	     -5.73616975
      0.50400000	     -7.98545447	      2.04828187	      4.54621632	     -0.71575144	      1.01314153	      0.27396628	     30.29728847	     -0.37809939	     -9.08051145	     -4.05192923	      7.49162563	      4.28048051	     17.62043656	     -4.39158222	      6.32907409	      5.62203552	    -17.82374011	      5.32404201	     -2.42486062	      7.08673714	      2.16431527	     -4.60751532	     -5.79036592
      0.50816667	     -7.85924398	      1.96760728	      4.66043153	     -0.70969093	      1.01292085	      0.27401228	     30.08113482	     -0.25025787	     -8.58817512	     -4.53196313	      7.33147133	      3.50637918	     17.69217011	     -4.37236203	      6.21358277	      5.59935313	    -18.77713874	      5.01636085	     -2.40913081	      7.41987826	      2.09141798	     -4.49792798	     -5.83090107
      0.51233333	     -7.71136076	      1.87597380	      4.75835116	     -0.70356920	      1.01273888	      0.27411220	     29.83891704	     -0.09997419	     -8.12703960	     -5.01274724	      7.12599372	      2.76868008	     18.39197772	     -4.34927350	      6.06649927	      5.45246001	    -19.75658389	      4.60296966	     -2.30770378	     10.99128774	      2.01915369	     -4.36325600	     -5.72233471
      0.51650000	     -7.62038070	      1.81850028	      4.87643177	     -0.69747855	      1.01249528	      0.27417571	     29.66067428	      0.00508586	     -7.64994096	     -5.50553099	      6.87842026	      1.95146552	     18.39850117	     -4.25392849	      5.97946720	      5.44935664	    -20.76486185	      4.11502409	     -2.38730530	     11.07199193	      1.99279536	     -4.27761197	     -5.90576780
      0.52066667	     -7.48727787	      1.73952402	      4.97960859	     -0.69136506	      1.01231319	      0.27429100	     29.42995405	      0.14653254	     -7.18963833	     -5.97335513	      6.48723681	      1.05133096	     18.41133905	     -4.16422394	      5.84742949	      5.31485641	    -21.83175871	      3.70480206	     -2.32630635	     11.25084371	      1.91750456	     -4.17492938	     -5.91958898
      0.52483333	     -7.36922218	      1.65126352	      5.07727633	     -0.68522357	      1.01212970	      0.27444103	     29.21038186	      0.30138490	     -6.73734638	     -6.43019997	      6.06543939	      0.15911161	     18.42903163	     -4.03137525	      5.69811337	      5.14144732	    -22.93913589	      3.19487885	     -2.24894557	     11.51259063	      1.87129835	     -4.05989518	     -5.93527609
      0.52900000	     -7.23019461	      1.56497976	      5.16838572	     -0.67906854	      1.01199575	      0.27462726	     28.96521769	      0.46137772	     -6.30221899	     -6.87557128	      5.59401041	     -0.73328325	     18.45002213	     -3.89456789	      5.53576360	      4.91513784	    -24.07554829	      2.62814731	     -2.14176437	     11.86738207	      1.80470804	     -3.94536487	     -5.94184141
      0.53316667	     -7.09831076	      1.46869524	      5.25666293	     -0.67289423	      1.01186298	      0.27483605	     28.73265478	      0.62874672	     -5.92661508	     -7.32879959	      5.11954860	     -1.52797333	     18.76173549	     -3.72330400	      5.34754671	      4.63252345	    -25.23662540	      1.88637177	     -2.03880815	     16.39218816	      1.75915272	     -3.82168984	     -5.88300572
      0.53733333	     -6.97375018	      1.36761844	      5.34321442	     -0.66672856	      1.01175328	      0.27506999	     28.50626425	      0.80397695	     -5.54540299	     -7.77473315	      4.60194321	     -2.34743026	     18.75113020	     -3.51496573	      5.15079607	      4.35250349	    -26.44501874	      1.18230220	     -1.93839485	     16.47890830	      1.71016339	     -3.69587614	     -5.93661418
      0.54150000	     -6.86106911	      1.27537496	      5.42254639	     -0.66057263	      1.01164201	      0.27534363	     28.29860617	      0.97242286	     -5.18041998	     -8.22969608	      4.07426954	     -3.13449309	     18.74049243	     -3.26345691	      4.94943474	      4.02267015	    -27.68716204	      0.42589096	     -1.79434073	     16.64938019	      1.67947415	     -3.58538772	     -5.92115368
      0.54566667	     -6.74090004	      1.16590568	      5.49909399	     -0.65440578	      1.01157352	      0.27564793	     28.08003701	      1.15968814	     -4.84197867	     -8.67567572	      3.53594000	     -3.88887822	     18.72690205	     -2.99001677	      4.71198725	      3.65458785	    -28.96338866	     -0.39806180	     -1.63009021	     16.89420562	      1.64601261	     -3.45411199	     -5.89987796
      0.54983333	     -6.60048712	      1.06619897	      5.59037887	     -0.64826058	      1.01157386	      0.27596848	     27.83836177	      1.33322239	     -4.53117967	     -9.12145524	      3.03516350	     -4.64597633	     18.70521240	     -2.71514053	      4.46967849	      3.30428747	    -30.25634784	     -1.32029580	     -1.43391173	     17.37018784	      1.58249399	     -3.35123679	     -5.85510145
      0.55400000	     -6.48964075	      0.93372295	      5.64186236	     -0.64210675	      1.01152455	      0.27633703	     27.64704587	      1.54724565	     -4.24866165	     -9.59589568	      2.51289967	     -5.26819747	     18.68002058	     -2.37261974	      4.18074364	      2.86670863	    -31.59882236	     -2.25671950	     -1.29898122	     17.76100378	      1.56542345	     -3.18481261	     -5.83106174
      0.55816667	     -6.36846566	      0.81365279	      5.70689441	     -0.63597089	      1.01155680	      0.27671652	     27.43991128	      1.74323350	     -3.99253191	    -10.06714059	      2.04089460	     -5.85908063	     18.64501655	     -2.01931052	      3.89162405	      2.45307892	    -32.94906026	     -3.32803676	     -1.16902106	     18.20056727	      1.53181564	     -3.04882188	     -5.78998596
      0.56233333	     -6.23644621	      0.68261285	      5.78449151	     -0.62984881	      1.01161966	      0.27709866	     27.23237487	      1.93674219	     -3.83606592	    -10.56559645	      1.67667050	     -6.27886235	     18.26606460	     -1.65172920	      3.57116966	      2.04642689	    -34.30947872	     -4.51828337	     -1.01407175	     22.96891686	      1.47983756	     -2.91137219	     -5.71992111
      0.56650000	     -6.16629051	      0.55041867	      5.84263307	     -0.62375539	      1.01160187	      0.27751158	     27.10216739	      2.13297335	     -3.65080585	    -11.08749612	      1.33408401	     -6.71908836	     18.25209052	     -1.18293894	      3.25104188	      1.62932977	    -35.72310195	     -5.68327578	     -0.88648902	     22.99396556	      1.50732334	     -2.76626248	     -5.69961990
